<svg width="438" height="665" viewBox="0 0 438 665" fill="none" xmlns="http://www.w3.org/2000/svg">
<path fill-rule="evenodd" clip-rule="evenodd" d="M15.187 214.249L155.92 350.081C174.394 367.912 196.326 382.056 220.465 391.706C244.603 401.355 270.476 406.322 296.604 406.322H318.546C344.675 406.323 370.547 411.289 394.686 420.939C418.825 430.589 440.757 444.733 459.23 462.564L609.858 607.948C628.332 625.778 650.264 639.922 674.403 649.572C698.542 659.222 724.414 664.189 750.542 664.189H1191.52C1246.24 664.189 1290.6 621.383 1290.6 568.582C1290.6 543.23 1280.16 518.916 1261.59 500.987L1156.48 399.538C1141.84 385.41 1141.85 362.501 1156.49 348.375C1163.52 341.592 1173.05 337.782 1183 337.782C1203.7 337.782 1220.49 321.585 1220.49 301.605C1220.49 292.013 1216.54 282.812 1209.51 276.026L994.51 68.5132C976.036 50.6827 954.104 36.5386 929.965 26.8886C905.826 17.2387 879.953 12.272 853.824 12.2721H630.991C605.399 12.272 580.058 7.40723 556.415 -2.04443C532.772 -11.4961 511.29 -25.3494 493.196 -42.8133C475.102 -60.278 453.619 -74.132 429.975 -83.584C406.331 -93.036 380.989 -97.9009 355.397 -97.9007H99.6939C61.0312 -97.9007 29.6893 -67.6571 29.6893 -30.3492C29.6894 -12.4363 37.0626 4.74312 50.1873 17.4109L85.1897 51.1944C104.516 69.8473 104.512 100.087 85.1817 118.736C75.9003 127.69 63.3136 132.72 50.1894 132.721C22.8519 132.721 0.694763 154.105 0.694763 180.481C0.69457 193.145 5.90674 205.291 15.1851 214.247L15.187 214.249Z" fill="url(#paint0_linear)"/>
<defs>
<linearGradient id="paint0_linear" x1="0.694772" y1="177.511" x2="1134.31" y2="709.431" gradientUnits="userSpaceOnUse">
<stop stop-color="#B91E1E"/>
<stop offset="1" stop-color="#2AB6D9"/>
</linearGradient>
</defs>
</svg>
