<svg width="802" height="942" viewBox="0 0 802 942" fill="none" xmlns="http://www.w3.org/2000/svg">
<path fill-rule="evenodd" clip-rule="evenodd" d="M752.654 790.663L798.46 771H800.207L800.208 770.25L800.207 499.029L700.759 693.433L752.654 790.663ZM690.105 696.657L610.501 851.684L582.661 863.635L328.567 643.815L541.772 417.534L690.105 696.657ZM696.173 684.839L800.207 482.233L800.207 171.75H801.104L800.207 171.365V171H799.357L781.344 163.268L549.263 409.583L696.173 684.839ZM544.523 400.702L772.597 159.513L455.338 23.3253L397.004 124.308L544.523 400.702ZM393.092 116.976L448.97 20.592L401 0L343.77 24.5666L393.092 116.976ZM334.952 28.3521L387.33 126.914L168.127 505.015L0.207245 359.745V171H2.64345L334.952 28.3521ZM391.244 134.28L537.035 408.62L320.901 637.183L174.1 510.183L391.244 134.28ZM694.693 705.291L742.401 795.064L622.423 846.566L694.693 705.291ZM0.207245 770.25V372.689L162.932 513.975L11.6035 775L17.7782 777.882L1.74718 771H0.207245V770.339L0 770.25H0.207245ZM19.1264 778.46L168.91 519.166L313.657 644.843L138.748 829.81L19.1264 778.46ZM149.124 834.263L321.325 651.501L571.277 868.521L400.104 942L149.124 834.263Z" fill="#2A3B4E"/>
</svg>
